<svg viewBox="0 0 25 24" fill="none" xmlns="http://www.w3.org/2000/svg">
<path fill-rule="evenodd" clip-rule="evenodd" d="M11.8952 5.48022C13.2278 5.59263 14.5605 4.80573 15.3934 3.80805C16.2124 2.78226 16.7538 1.40518 16.615 0C15.435 0.0562074 13.9775 0.786903 13.1446 1.81269C12.3811 2.69795 11.7286 4.13124 11.8952 5.48022ZM13.4904 6.44878C14.3557 6.10485 15.4269 5.67904 16.601 5.74744C17.3506 5.80365 19.5161 6.02848 20.9043 8.10815C20.8979 8.11299 20.8838 8.12227 20.8629 8.13603C20.5194 8.3621 18.3377 9.79827 18.3639 12.6328C18.39 16.0099 21.1076 17.2693 21.4631 17.4341C21.4863 17.4448 21.4995 17.4509 21.5012 17.4526C21.4997 17.4572 21.4969 17.4662 21.4928 17.4795C21.4219 17.7118 20.9545 19.2425 19.8909 20.811C18.9053 22.2724 17.8919 23.7057 16.2817 23.7338C15.5239 23.7475 15.0134 23.5242 14.4819 23.2916C13.9229 23.0471 13.3405 22.7923 12.4226 22.7923C11.4717 22.7923 10.8627 23.0539 10.2765 23.3057C9.76728 23.5244 9.27525 23.7358 8.59126 23.7619C7.03652 23.8181 5.85658 22.2162 4.87099 20.7548C2.85815 17.8039 1.3173 12.4361 3.39954 8.81074C4.4129 6.99806 6.25915 5.85986 8.24422 5.83175C9.11026 5.81581 9.93611 6.14792 10.6585 6.4384C11.2097 6.66009 11.7007 6.85754 12.1033 6.85754C12.462 6.85754 12.9336 6.67011 13.4904 6.44878Z" fill="white"/>
</svg>
