<svg viewBox="0 0 25 24" fill="none" xmlns="http://www.w3.org/2000/svg">
<path d="M4.14258 19.5C3.59258 19.5 3.12174 19.3042 2.73008 18.9125C2.33841 18.5208 2.14258 18.05 2.14258 17.5V5.5C2.14258 4.95 2.33841 4.47917 2.73008 4.0875C3.12174 3.69583 3.59258 3.5 4.14258 3.5H20.1426C20.6926 3.5 21.1634 3.69583 21.5551 4.0875C21.9467 4.47917 22.1426 4.95 22.1426 5.5V10.825C21.8426 10.6083 21.5259 10.4167 21.1926 10.25C20.8592 10.0833 20.5092 9.94167 20.1426 9.825V7.5H4.14258V11.5H13.1426C12.4926 12.1333 11.9801 12.8792 11.6051 13.7375C11.2301 14.5958 11.0426 15.5167 11.0426 16.5C11.0426 17.0333 11.1009 17.5542 11.2176 18.0625C11.3342 18.5708 11.5009 19.05 11.7176 19.5H4.14258ZM18.0426 20L14.5426 16.5C14.3259 16.2833 14.1717 16.05 14.0801 15.8C13.9884 15.55 13.9426 15.3 13.9426 15.05C13.9426 14.5167 14.1342 14.0417 14.5176 13.625C14.9009 13.2083 15.3926 13 15.9926 13C16.4592 13 16.8259 13.1083 17.0926 13.325C17.3592 13.5417 17.6759 13.8333 18.0426 14.2C18.3759 13.8667 18.6801 13.5833 18.9551 13.35C19.2301 13.1167 19.6092 13 20.0926 13C20.7092 13 21.2051 13.2125 21.5801 13.6375C21.9551 14.0625 22.1426 14.5417 22.1426 15.075C22.1426 15.325 22.0926 15.575 21.9926 15.825C21.8926 16.075 21.7426 16.3 21.5426 16.5L18.0426 20Z" fill="white"/>
</svg>
