<svg width="40" height="40" viewBox="0 0 40 40" fill="none" xmlns="http://www.w3.org/2000/svg">
<path d="M40.0058 20.0007C40.0058 30.102 32.5204 38.4529 22.7961 39.808C21.8869 39.9341 20.9567 40 20.0124 40C18.9224 40 17.8521 39.9131 16.8097 39.7449C7.28867 38.2118 0.0175781 29.9548 0.0175781 20.0007C0.0175781 8.95491 8.96985 0 20.011 0C31.0521 0 40.0058 8.95491 40.0058 20.0007Z" fill="#1877F2"/>
<path d="M22.7955 16.0587V20.4157H28.1837L27.3305 26.2847H22.7955V39.8068C21.8863 39.9329 20.956 39.9988 20.0118 39.9988C18.9218 39.9988 17.8515 39.9119 16.8091 39.7437V26.2847H11.8398V20.4157H16.8091V15.0848C16.8091 11.7775 19.4892 9.09521 22.7969 9.09521V9.09802C22.8067 9.09802 22.8151 9.09521 22.8249 9.09521H28.1851V14.1711H24.6826C23.6417 14.1711 22.7969 15.0161 22.7969 16.0573L22.7955 16.0587Z" fill="white"/>
</svg>
