<svg viewBox="0 0 24 25" fill="none" xmlns="http://www.w3.org/2000/svg">
<path d="M22.3527 12.7957C22.3527 12.0854 22.2956 11.3752 22.1813 10.6794H12.4805V14.6944H18.0381C17.8095 15.9845 17.0666 17.144 15.9808 17.8687V20.4778H19.2953C21.2383 18.666 22.3527 15.9845 22.3527 12.7957Z" fill="#FF8F64"/>
<path d="M12.4814 22.9999C15.2531 22.9999 17.5961 22.0723 19.2962 20.4779L15.9817 17.8688C15.053 18.5066 13.8672 18.869 12.4814 18.869C9.79546 18.869 7.52384 17.0282 6.70949 14.5641H3.29492V17.2601C5.03792 20.7823 8.59536 22.9999 12.4814 22.9999Z" fill="#FFA27B"/>
<path d="M6.71036 14.5641C6.28168 13.2741 6.28168 11.8681 6.71036 10.5636V7.88208H3.29524C1.82346 10.8245 1.82346 14.3032 3.29524 17.2456L6.71036 14.5641Z" fill="#F9BFA7"/>
<path d="M12.4814 6.25878C13.9529 6.22979 15.3673 6.79508 16.4246 7.82419L19.3677 4.83831C17.4961 3.06997 15.0387 2.09884 12.4814 2.12783C8.59536 2.12783 5.03792 4.35999 3.29492 7.88217L6.70949 10.5782C7.52384 8.09959 9.79546 6.25878 12.4814 6.25878Z" fill="white"/>
</svg>
