<svg width="40" height="40" viewBox="0 0 40 40" fill="none" xmlns="http://www.w3.org/2000/svg">
<path d="M20.0455 0H19.9544C8.93715 0 0.00585938 8.93391 0.00585938 19.9545V20.0455C0.00585938 31.0661 8.93715 40 19.9544 40H20.0455C31.0628 40 39.9941 31.0661 39.9941 20.0455V19.9545C39.9941 8.93391 31.0628 0 20.0455 0Z" fill="url(#paint0_linear_5332_805)"/>
<path d="M26.188 8.1377H13.8146C10.3962 8.1377 7.61523 10.9195 7.61523 14.3389V25.6621C7.61523 29.0815 10.3962 31.8633 13.8146 31.8633H26.188C29.6064 31.8633 32.3874 29.0815 32.3874 25.6621V14.3389C32.3874 10.9195 29.6064 8.1377 26.188 8.1377ZM9.80217 14.3389C9.80217 12.1261 11.6024 10.3253 13.8146 10.3253H26.188C28.4002 10.3253 30.2005 12.1261 30.2005 14.3389V25.6621C30.2005 27.8749 28.4002 29.6757 26.188 29.6757H13.8146C11.6024 29.6757 9.80217 27.8749 9.80217 25.6621V14.3389Z" fill="white"/>
<path d="M20.0008 25.7672C23.1796 25.7672 25.7673 23.1803 25.7673 19.9991C25.7673 16.8179 23.1811 14.231 20.0008 14.231C16.8206 14.231 14.2344 16.8179 14.2344 19.9991C14.2344 23.1803 16.8206 25.7672 20.0008 25.7672ZM20.0008 16.4199C21.9748 16.4199 23.5803 18.0259 23.5803 20.0005C23.5803 21.9751 21.9748 23.5811 20.0008 23.5811C18.0268 23.5811 16.4213 21.9751 16.4213 20.0005C16.4213 18.0259 18.0268 16.4199 20.0008 16.4199Z" fill="white"/>
<path d="M26.3017 15.163C27.1577 15.163 27.8554 14.4665 27.8554 13.6088C27.8554 12.7512 27.1591 12.0547 26.3017 12.0547C25.4443 12.0547 24.748 12.7512 24.748 13.6088C24.748 14.4665 25.4443 15.163 26.3017 15.163Z" fill="white"/>
<defs>
<linearGradient id="paint0_linear_5332_805" x1="5.84795" y1="34.1562" x2="34.1603" y2="5.85355" gradientUnits="userSpaceOnUse">
<stop stop-color="#FAAD4F"/>
<stop offset="0.35" stop-color="#DD2A7B"/>
<stop offset="0.62" stop-color="#9537B0"/>
<stop offset="1" stop-color="#515BD4"/>
</linearGradient>
</defs>
</svg>
