<svg width="167" height="40" viewBox="0 0 167 40" fill="none" xmlns="http://www.w3.org/2000/svg">
<g clip-path="url(#clip0_5844_1973)">
<path d="M27.1141 8.86827C26.6031 8.82046 26.1205 8.79645 25.6794 8.79645C22.987 8.79645 21.8637 9.58294 19.6408 12.1066L16.1725 16.0442L12.7028 12.1072C10.4793 9.58294 9.35597 8.79645 6.66353 8.79645C6.22247 8.79645 5.73991 8.82046 5.22823 8.86827C3.35643 9.04254 0.443453 10.9419 0 15.4537V17.3419C0.551003 23.0087 5.98695 29.5246 16.1718 36.7365C26.3573 29.5238 31.7935 23.008 32.3443 17.3419V15.4546C31.8995 10.9419 28.9866 9.04254 27.1141 8.86827Z" fill="currentColor"/>
<path d="M57.4961 10.2497L57.5556 9.43052C57.6655 7.92355 58.5192 6.58091 60.0918 5.44194C61.6236 4.34146 63.3437 3.78533 65.2049 3.78533C66.4449 3.78533 67.471 4.03949 68.2558 4.54492C69.1284 5.10395 69.5866 5.89624 69.5866 6.83507C69.5866 8.39296 68.62 10.2497 64.0058 10.2497H57.4961ZM70.2867 12.8481C72.713 11.4098 73.8899 9.40651 73.8899 6.72145C73.8899 4.72416 73.1586 3.14557 71.6583 1.89856C70.1233 0.621952 68.1741 0 65.7009 0C62.3738 0 59.4861 0.921028 57.1195 2.73577C54.7747 4.52691 53.4407 6.82307 53.1519 9.56194L53.0767 10.2497H48.3278C47.135 10.2497 46.2185 10.477 45.6032 10.9284C45.0383 11.344 44.7745 11.9121 44.7745 12.7135C44.7745 13.12 44.7745 14.0768 47.2197 14.0768H54.0653L54.2882 14.4896C54.891 15.5958 55.93 16.9293 57.3737 18.4543C59.5771 20.7894 60.9737 22.4667 61.6423 23.5879C62.3519 24.7751 62.7128 26.1086 62.7128 27.5558C62.7128 29.8372 61.8339 31.8403 60.1044 33.5118C58.3719 35.186 56.2939 36.0354 53.9304 36.0354C51.7803 36.0354 49.9726 35.3806 48.5601 34.0889C47.138 32.7822 46.4162 31.1138 46.4162 29.1285C46.4162 27.8697 46.818 26.59 47.6121 25.3252C48.3967 24.0755 49.3981 23.0827 50.5877 22.3771L52.474 21.2766C53.4502 20.7027 53.9274 20.0807 53.9274 19.3691C53.9274 18.8519 53.7546 18.4601 53.3874 18.1403C53.0046 17.8084 52.5023 17.6469 51.8589 17.6469C50.4245 17.6469 48.7921 18.3227 47.0094 19.6591C43.5411 22.2635 41.8555 25.4179 41.8555 29.3078C41.8555 32.4654 42.9227 34.9799 45.12 36.9981C47.3201 39.0163 50.079 40 53.5536 40C58.0766 40 61.6266 38.523 64.4108 35.4853C66.404 33.3233 67.4145 30.7669 67.4145 27.8904C67.4145 24.9185 66.2563 22.0482 63.9682 19.3602L59.5173 14.0768H63.5349C66.6456 14.0768 68.9181 13.6644 70.2867 12.8481Z" fill="currentColor"/>
<path d="M87.5966 13.455C86.7399 13.455 85.9551 13.9633 85.1987 15.0069L84.7811 15.6019L77.5464 24.9902L78.5098 16.1521C78.5695 15.6795 78.6008 15.3507 78.6008 15.1534C78.6008 14.1428 78.2117 13.7659 77.1666 13.7659C76.435 13.7659 75.8795 13.9902 75.4591 14.4565C75.0006 14.9649 74.7184 15.7483 74.6241 16.7918L73.7767 25.7407C73.7639 25.8903 73.7578 26.0818 73.7578 26.324C73.7578 27.4213 74.0216 28.2794 74.5363 28.8743C75.0258 29.4364 75.685 29.7086 76.5543 29.7086C77.6153 29.7086 78.5319 29.2123 79.3541 28.1896L88.0643 17.4467C89.094 16.173 89.3104 15.4374 89.3104 15.0458C89.3104 14.5642 89.1596 14.1906 88.8459 13.9004C88.5226 13.5955 88.1241 13.455 87.5966 13.455Z" fill="currentColor"/>
<path d="M98.0901 26.0369H94.2357L98.0523 17.0429C98.5514 15.877 98.6267 15.3475 98.6267 15.1354C98.6267 14.7647 98.4855 14.4716 98.1655 14.1906C97.8389 13.9066 97.4561 13.7659 97.0072 13.7659C96.21 13.7659 95.058 13.9782 94.267 15.8261L90.1238 25.5583C89.7629 26.3926 89.6875 26.8861 89.6875 27.1549C89.6875 27.8338 89.9574 28.3332 90.5381 28.7248C91.1878 29.1673 92.1294 29.3917 93.3346 29.3917H97.0763C98.1466 29.3917 98.969 29.1884 99.5213 28.7875C100.021 28.4257 100.253 27.9385 100.253 27.2628C100.253 26.8652 100.253 26.0369 98.0901 26.0369Z" fill="currentColor"/>
<path d="M100.289 10.6354C100.772 10.1749 101.008 9.62786 101.008 8.96409C101.008 8.30323 100.772 7.7591 100.289 7.29858C99.8024 6.83807 99.2312 6.61392 98.5372 6.61392C97.8437 6.61392 97.2725 6.83807 96.786 7.29858C96.3058 7.75599 96.0703 8.30323 96.0703 8.96409C96.0703 9.63075 96.3058 10.178 96.786 10.6354C97.759 11.5564 99.3157 11.5564 100.289 10.6354Z" fill="currentColor"/>
<path d="M122.223 26.0369H118.206L121.222 18.9505C121.527 18.227 121.68 17.5603 121.68 16.9713C121.68 15.9515 121.298 15.1323 120.513 14.4716C118.868 13.0812 116.103 12.9407 113.083 15.1354L112.305 15.7004L111.875 14.8603C111.492 14.1128 110.899 13.7659 110.007 13.7659C108.868 13.7659 108.108 14.304 107.619 15.4643L102.606 27.239C102.399 27.7202 102.289 28.1387 102.289 28.4529C102.289 28.7998 102.421 29.0657 102.719 29.3108C103.043 29.5772 103.432 29.7086 103.909 29.7086C105.205 29.7086 106.178 28.8983 106.881 27.2299L109.662 20.7206C110.783 18.0984 112.346 16.7678 114.314 16.7678C115.007 16.7678 115.597 16.9562 116.065 17.327C116.577 17.7306 116.837 18.2628 116.812 18.8638C116.79 19.2794 116.655 19.7668 116.401 20.3588L114.329 25.2415C113.808 26.4494 113.73 27.0146 113.73 27.2448C113.73 27.8667 113.953 28.3481 114.436 28.7517C114.938 29.1854 115.554 29.3917 116.316 29.3917H121.235C122.292 29.3917 123.112 29.1885 123.67 28.7876C124.176 28.4229 124.411 27.9385 124.411 27.2628C124.411 26.8652 124.411 26.0369 122.223 26.0369Z" fill="currentColor"/>
<path d="M140.782 29.0418C141.268 29.7087 141.692 29.7087 141.834 29.7087C142.373 29.7087 142.857 29.5052 143.312 29.0894C143.754 28.6858 143.971 28.2584 143.971 27.783C143.971 27.6244 143.899 27.2509 143.419 26.5331L139.36 20.4785L144.012 17.2313C144.966 16.5555 145.431 15.8649 145.431 15.1115C145.431 14.7197 145.299 14.4177 145.019 14.1635C144.724 13.8916 144.379 13.7659 143.927 13.7659C143.516 13.7659 142.775 13.9423 141.579 14.7824L134.363 19.8923L140.782 29.0418Z" fill="currentColor"/>
<path d="M128.012 29.7086C129.296 29.7086 130.269 28.8892 130.987 27.203L134.192 19.6501L134.195 19.6561L141.323 2.93622C141.534 2.4459 141.641 2.02719 141.641 1.68051C141.641 1.30651 141.499 1.01365 141.185 0.729473C140.868 0.451509 140.491 0.310976 140.043 0.310976C139.255 0.310976 138.112 0.523329 137.324 2.35007L126.731 27.2179C126.521 27.6962 126.414 28.1 126.414 28.4287C126.414 28.7847 126.546 29.0537 126.841 29.3077C127.161 29.58 127.531 29.7086 128.012 29.7086Z" fill="currentColor"/>
<path d="M159.247 20.2901L157.602 24.1651C157.222 25.0681 156.337 26.1444 154.291 26.1444H153.704C152.875 26.1444 150.945 25.8455 150.945 23.0708C150.945 21.5398 151.551 20.0509 152.75 18.6426C153.992 17.1864 155.327 16.451 156.717 16.451C157.461 16.451 158.123 16.6511 158.688 17.0489C159.476 17.6291 159.639 18.2777 159.639 18.7233C159.639 19.169 159.507 19.698 159.247 20.2901ZM164.837 26.0369H161.055L165.154 16.3912C165.361 15.9098 165.471 15.491 165.471 15.1773C165.471 14.7766 165.33 14.4597 165.022 14.1786C164.711 13.9036 164.325 13.7659 163.848 13.7659C162.841 13.7659 162.075 14.1935 161.435 15.1115L160.763 16.0712L160.094 15.1084C159.322 13.9961 158.101 13.4551 156.362 13.4551C153.961 13.4551 151.852 14.4806 149.918 16.5884C147.95 18.7322 146.996 21.0855 146.996 23.7884C146.996 25.5166 147.455 26.8621 148.393 27.8997C149.3 28.9041 150.468 29.3918 151.962 29.3918H154.645C155.54 29.3918 156.507 28.9522 157.521 28.0849L158.33 27.3943L158.786 28.3362C159.005 28.7876 159.454 29.3918 160.813 29.3918H163.826C164.881 29.3918 165.697 29.1854 166.259 28.7787C166.764 28.408 167 27.9204 167 27.2448C167 26.853 167 26.0369 164.837 26.0369Z" fill="currentColor"/>
</g>
<defs>
<clipPath id="clip0_5844_1973">
<rect width="167" height="40" fill="white"/>
</clipPath>
</defs>
</svg>
