<svg viewBox="0 0 24 25" fill="none" xmlns="http://www.w3.org/2000/svg">
<g clip-path="url(#clip0_5278_863)">
<path fill-rule="evenodd" clip-rule="evenodd" d="M5.75477 23.1866L6.16901 20.5447L5.24624 20.5231H0.839844L3.90213 1.02771C3.91167 0.968672 3.94251 0.91387 3.98755 0.874885C4.03282 0.8359 4.0905 0.814514 4.15085 0.814514H11.5807C14.0475 0.814514 15.7497 1.32979 16.6383 2.34696C17.055 2.82414 17.3203 3.32292 17.4488 3.87161C17.5835 4.44748 17.5857 5.1354 17.4543 5.97458L17.4448 6.03562V6.57339L17.8615 6.81042C18.2123 6.99732 18.4912 7.21118 18.705 7.45601C19.0614 7.86413 19.2919 8.38274 19.3893 8.99737C19.49 9.6296 19.4567 10.3821 19.2919 11.234C19.1018 12.2137 18.7945 13.0672 18.3793 13.7654C17.9977 14.4087 17.5114 14.9425 16.9338 15.3559C16.3825 15.7489 15.7275 16.0472 14.9869 16.2381C14.2691 16.4257 13.4509 16.5204 12.5534 16.5204H11.9752C11.5618 16.5204 11.1603 16.6699 10.845 16.9378C10.5288 17.2114 10.3198 17.5852 10.2557 17.994L10.212 18.2319L9.48001 22.8885L9.44696 23.0594C9.43808 23.1135 9.42299 23.1405 9.40081 23.1588C9.38106 23.1755 9.35266 23.1866 9.32493 23.1866H5.75477Z" fill="#28356A"/>
<path fill-rule="evenodd" clip-rule="evenodd" d="M18.2569 6.09772C18.2349 6.24007 18.2094 6.38554 18.181 6.53502C17.2012 11.5861 13.8489 13.3311 9.56764 13.3311H7.38774C6.86412 13.3311 6.42282 13.7127 6.34139 14.2313L4.9092 23.3527C4.85617 23.6933 5.11754 24.0001 5.45967 24.0001H9.32602C9.78375 24.0001 10.1727 23.6662 10.2448 23.2128L10.2827 23.0157L11.0107 18.3773L11.0575 18.1229C11.1287 17.668 11.5186 17.3339 11.9763 17.3339H12.5545C16.3004 17.3339 19.2329 15.807 20.09 11.3881C20.4478 9.54221 20.2626 8.00086 19.3152 6.91685C19.0285 6.59004 18.6729 6.31871 18.2569 6.09772Z" fill="#F9BFA7"/>
<path fill-rule="evenodd" clip-rule="evenodd" d="M17.2305 5.6875C17.0807 5.64362 16.9263 5.60397 16.7679 5.5681C16.6086 5.53312 16.4455 5.50216 16.2775 5.47498C15.6898 5.37963 15.0457 5.33441 14.3559 5.33441H8.53239C8.38884 5.33441 8.25261 5.36694 8.1308 5.42575C7.86211 5.5554 7.66265 5.8107 7.61428 6.12325L6.37534 14.0018L6.33984 14.2315C6.42127 13.7129 6.86258 13.3312 7.3862 13.3312H9.5661C13.8474 13.3312 17.1996 11.5854 18.1794 6.53515C18.2087 6.38567 18.2333 6.2402 18.2553 6.09785C18.0075 5.96575 17.739 5.8528 17.4499 5.75656C17.3785 5.73273 17.3048 5.70978 17.2305 5.6875Z" fill="#FF8F64"/>
<path fill-rule="evenodd" clip-rule="evenodd" d="M7.61527 6.1231C7.66364 5.81056 7.86311 5.55526 8.13179 5.4265C8.25449 5.36746 8.38983 5.33494 8.53338 5.33494H14.3569C15.0467 5.33494 15.6908 5.38038 16.2785 5.47573C16.4465 5.50269 16.6096 5.53387 16.7689 5.56885C16.9273 5.60449 17.0817 5.64437 17.2315 5.68803C17.3058 5.71031 17.3795 5.73348 17.4516 5.75642C17.7407 5.85266 18.0093 5.9665 18.2572 6.09771C18.5487 4.2311 18.2547 2.96019 17.2497 1.80935C16.1414 0.542226 14.1414 0 11.5821 0H4.15206C3.62933 0 3.18336 0.381608 3.1026 0.901112L0.00792001 20.597C-0.053095 20.9867 0.246211 21.3382 0.637595 21.3382H5.22459L7.61527 6.1231Z" fill="white"/>
</g>
<defs>
<clipPath id="clip0_5278_863">
<rect width="24" height="24" fill="white" transform="translate(0 0.5)"/>
</clipPath>
</defs>
</svg>
