<svg width="40" height="40" viewBox="0 0 40 40" fill="none" xmlns="http://www.w3.org/2000/svg">
<path d="M20.0338 0H19.9427C8.92543 0 -0.00585938 8.93391 -0.00585938 19.9545V20.0455C-0.00585938 31.0661 8.92543 40 19.9427 40H20.0338C31.0511 40 39.9824 31.0661 39.9824 20.0455V19.9545C39.9824 8.93391 31.0511 0 20.0338 0Z" fill="black"/>
<path d="M30.1256 15.8862V19.663C29.4657 19.5985 28.6083 19.4486 27.6599 19.101C26.4214 18.647 25.4995 18.0262 24.8957 17.5455V25.1789L24.8803 25.1551C24.8901 25.3064 24.8957 25.4606 24.8957 25.6161C24.8957 29.4069 21.8122 32.4928 18.0211 32.4928C14.23 32.4928 11.1465 29.4069 11.1465 25.6161C11.1465 21.8254 14.23 18.7381 18.0211 18.7381C18.3924 18.7381 18.7566 18.7675 19.1125 18.825V22.5471C18.7706 22.4252 18.4036 22.3593 18.0211 22.3593C16.2264 22.3593 14.7652 23.8195 14.7652 25.6161C14.7652 27.4127 16.2264 28.873 18.0211 28.873C19.8158 28.873 21.277 27.4113 21.277 25.6161C21.277 25.5489 21.2756 25.4816 21.2714 25.4143V10.5806H25.0442C25.0582 10.9001 25.0708 11.2224 25.0849 11.5419C25.1101 12.1711 25.3342 12.7752 25.7251 13.2698C26.1832 13.8514 26.8599 14.5269 27.8098 15.0664C28.6994 15.5709 29.5344 15.7867 30.1256 15.889V15.8862Z" fill="#FF004F"/>
<path d="M28.8287 12.8197V16.5965C28.1688 16.532 27.3114 16.3821 26.363 16.0345C25.1245 15.5805 24.2027 14.9596 23.5988 14.479V22.1124L23.5834 22.0885C23.5932 22.2399 23.5988 22.394 23.5988 22.5496C23.5988 26.3404 20.5153 29.4262 16.7242 29.4262C12.9332 29.4262 9.84961 26.3404 9.84961 22.5496C9.84961 18.7588 12.9332 15.6716 16.7242 15.6716C17.0955 15.6716 17.4597 15.701 17.8156 15.7584V19.4805C17.4737 19.3586 17.1067 19.2928 16.7242 19.2928C14.9296 19.2928 13.4683 20.753 13.4683 22.5496C13.4683 24.3462 14.9296 25.8064 16.7242 25.8064C18.5189 25.8064 19.9801 24.3448 19.9801 22.5496C19.9801 22.4823 19.9787 22.4151 19.9745 22.3478V7.51123H23.7473C23.7614 7.83075 23.774 8.15307 23.788 8.47259C23.8132 9.10181 24.0374 9.70581 24.4282 10.2005C24.8863 10.7821 25.563 11.4576 26.5129 11.9971C27.4025 12.5002 28.2375 12.7174 28.8287 12.8197Z" fill="#00F7EF"/>
<path d="M29.6529 14.4707V18.2475C28.9931 18.183 28.1357 18.0331 27.1872 17.6855C25.9487 17.2315 25.0269 16.6106 24.4231 16.13V23.7634L24.4077 23.7395C24.4175 23.8909 24.4231 24.045 24.4231 24.2006C24.4231 27.9914 21.3395 31.0772 17.5484 31.0772C13.7574 31.0772 10.6738 27.9914 10.6738 24.2006C10.6738 20.4098 13.7574 17.3226 17.5484 17.3226C17.9197 17.3226 18.284 17.352 18.6398 17.4094V21.1315C18.298 21.0096 17.9309 20.9438 17.5484 20.9438C15.7538 20.9438 14.2926 22.404 14.2926 24.2006C14.2926 25.9972 15.7538 27.4574 17.5484 27.4574C19.3431 27.4574 20.8043 25.9958 20.8043 24.2006C20.8043 24.1333 20.8029 24.0661 20.7987 23.9988V9.16504H24.5716C24.5856 9.48456 24.5982 9.80688 24.6122 10.1264C24.6374 10.7556 24.8616 11.3596 25.2524 11.8543C25.7106 12.4359 26.3872 13.1114 27.3371 13.6509C28.2267 14.154 29.0617 14.3712 29.6529 14.4735V14.4707Z" fill="white"/>
</svg>
